<svg height="800" viewBox="0 0 800 800" width="800" xmlns="http://www.w3.org/2000/svg" xmlns:xlink="http://www.w3.org/1999/xlink"><clipPath id="a"><path d="m0 600h600v-600h-600z"/></clipPath><linearGradient id="b" gradientTransform="matrix(600 0 0 -600 0 300)" gradientUnits="userSpaceOnUse" spreadMethod="pad" x1="0" x2="1" y1="0" y2="0"><stop offset="0" stop-color="#fff"/><stop offset="1" stop-color="#e0e0e0"/></linearGradient><clipPath id="c"><path d="m-.0483398 600.053h545.3453398v-600.340109h-545.3453398z"/></clipPath><g clip-path="url(#a)" transform="matrix(1.3333333 0 0 -1.3333333 0 800)"><path d="m600 0h-600v600h600z" fill="url(#b)"/><g fill="none"><path d="m596.205 0c-40.088 66.474-88.503 134.955-123.834 204.167-28.786 56.443-48.319 112.425-50.032 158.847-1.646 45.773 13.678 83.132 34.636 113.828 20.831 30.505 45.556 53.759 58.641 83.854 4.905 11.305 7.206 24.658 6.829 39.304" stroke="#bdbcbc"/><path d="m579.708 0c-40.651 68.988-89.329 139.486-122.905 210.653-26.281 55.747-42.068 111.045-39.648 155.319 2.465 44.615 22.162 79.33 46.254 108.421 23.752 28.62 50.111 50.52 62.964 80.53 5.344 12.512 6.924 27.968 4.923 45.077" stroke="#bdbcbc"/><path d="m564.062 0c-41.848 71.776-91.124 144.361-122.939 217.48-23.964 55.139-35.969 109.701-29.528 151.841 6.654 43.365 30.597 75.485 57.89 102.911 26.591 26.747 54.619 47.244 67.251 77.133 5.717 13.563 6.303 31.102 2.377 50.635" stroke="#bdbcbc"/><path d="m549.386 0c-43.659 74.787-93.859 149.544-123.897 224.55-21.838 54.615-30.064 108.381-19.729 148.434 10.877 42.03 38.974 71.569 69.47 97.343 29.391 24.824 59.071 43.94 71.474 73.702 6.016 14.484 5.365 34.081-.708 55.971" stroke="#bdbcbc"/><path d="m535.787 0c-46.039 77.971-97.496 154.983-125.751 231.771-19.903 54.18-24.362 107.059-10.289 145.116 15.096 40.617 47.223 67.656 80.918 91.767 32.089 22.944 63.432 40.639 75.603 70.261 6.264 15.29 4.15 36.913-4.238 61.085" stroke="#bdbcbc"/><path d="m523.301 0c-48.915 81.27-101.943 160.63-128.431 239.059-18.138 53.835-18.919 105.779-1.224 141.904 19.243 39.164 55.287 63.793 92.158 86.222 34.693 21.104 67.665 37.384 79.617 66.843 6.463 15.996 2.72 39.609-8.082 65.972" stroke="#bdbcbc"/><path d="m511.944 0c-52.201 84.626-107.101 166.412-131.85 246.347-16.541 53.569-13.734 104.513 7.444 138.806 23.317 37.66 63.125 60 103.131 80.744 37.205 19.298 71.764 34.178 83.496 63.47 6.618 16.618 1.09 42.17-12.186 70.633" stroke="#bdbcbc"/><path d="m501.682 0c-55.802 87.988-112.844 172.268-135.897 253.571-15.091 53.372-8.805 103.266 15.698 135.831 27.271 36.153 70.743 56.254 113.791 75.363 39.595 17.564 75.701 31.049 87.215 60.174 6.738 17.166-.687 44.599-16.446 75.061" stroke="#bdbcbc"/><path d="m492.467 0c-59.618 91.317-119.029 178.131-140.457 260.673-13.768 53.237-4.16 102.062 23.538 132.982 31.085 34.646 78.06 52.65 124.083 70.12 21.7 8.217 41.977 15.779 58.833 25.264 14.888 8.401 26.686 18.221 31.928 31.702 6.835 17.644-2.576 46.898-20.796 79.259" stroke="#bdbcbc"/><path d="m484.211 0c-18.002 26.87-36.085 53.748-53.463 80.85-41.949 65.441-78.392 129.685-91.927 186.755-12.566 53.153.222 100.884 30.957 130.265 34.746 33.165 85.087 49.158 133.963 65.037 22.875 7.436 44.092 14.274 61.614 23.227 15.336 7.865 27.404 17.299 32.512 30.643 6.904 18.07-4.541 49.074-25.168 83.223" stroke="#bdbcbc"/><path d="m600.878 551.348c-5.432 14.631-14.345 31.269-25.478 48.652" stroke="#bdbcbc"/><path d="m477.01 0c-19.864 28.873-39.718 57.704-58.665 86.774-42.932 65.895-79.764 130.773-92.071 187.545-11.466 53.109 4.329 99.749 37.951 127.684 38.245 31.705 91.768 45.829 143.392 60.144 23.987 6.683 46.112 12.794 64.246 21.272 12.473 5.83 22.781 12.732 29.015 21.904" stroke="#bdbcbc"/><path d="m600.878 560.851c-6.004 12.228-13.922 25.478-23.124 39.149" stroke="#bdbcbc"/><path d="m470.609 0c-21.729 30.79-43.349 61.486-63.841 92.438-43.906 66.333-81.175 131.852-92.365 188.34-10.471 53.101 8.16 98.671 44.515 125.24 41.559 30.301 98.123 42.627 152.34 55.463 25.055 5.932 47.992 11.425 66.724 19.41 8.981 3.832 16.846 8.233 22.896 13.634" stroke="#bdbcbc"/><path d="m600.878 567.017c-5.954 10.5-13.108 21.606-21.09 32.983" stroke="#bdbcbc"/><path d="m464.938 0c-23.578 32.621-46.932 65.086-68.93 97.822-44.852 66.755-82.589 132.894-92.762 189.119-9.56 53.115 11.712 97.655 50.649 122.94 44.671 28.967 104.104 39.598 160.768 51.017 26.048 5.234 49.756 10.128 69.04 17.651 6.36 2.488 12.168 5.26 17.175 8.472" stroke="#bdbcbc"/><path d="m600.878 571.531c-5.711 9.169-12.228 18.728-19.311 28.469" stroke="#bdbcbc"/><path d="m459.933 0c-25.384 34.354-50.428 68.491-73.886 102.906-45.752 67.159-83.971 133.898-93.222 189.873-8.735 53.147 15.018 96.675 56.358 120.781 47.583 27.701 109.694 36.757 168.659 46.829 26.957 4.603 51.387 8.913 71.186 15.996 4.216 1.51 8.189 3.15 11.85 4.959" stroke="#bdbcbc"/><path d="m600.878 574.964c-5.412 8.126-11.394 16.516-17.777 25.036" stroke="#bdbcbc"/><path d="m455.521 0c-27.128 35.98-53.795 71.684-78.642 107.675-46.604 67.53-85.297 134.84-93.708 190.579-7.983 53.196 18.046 95.781 61.629 118.777 50.287 26.502 114.89 34.101 175.983 42.912 27.802 4.009 52.902 7.764 73.163 14.458 2.392.788 4.707 1.619 6.932 2.499" stroke="#bdbcbc"/><path d="m600.878 578.415c-5.087 6.985-10.569 14.173-16.367 21.585" stroke="#bdbcbc"/><path d="m451.672 0c-28.794 37.5-57.007 74.652-83.167 112.104-47.396 67.876-86.544 135.716-94.21 191.241-3.634 26.515.423 50.932 11.276 69.727 11.83 20.472 31.33 35.696 55.189 47.2 52.783 25.383 119.668 31.666 182.73 39.28 28.576 3.455 54.26 6.751 74.968 13.04.815.248 1.623.503 2.42.762" stroke="#bdbcbc"/><path d="m600.878 580.392c-4.799 6.362-9.904 12.893-15.258 19.608" stroke="#bdbcbc"/><path d="m448.318 0c-30.357 38.899-60.018 77.387-87.405 116.18-48.119 68.183-87.711 136.525-94.689 191.843-3.33 26.492 1.353 50.723 12.894 69.201 12.656 20.21 33.099 35.006 57.963 46.034 55.061 24.349 124.033 29.406 188.875 35.955 28.504 2.879 54.126 5.638 74.922 11.28" stroke="#bdbcbc"/><path d="m600.878 581.973c-4.543 5.861-9.328 11.865-14.315 18.027" stroke="#bdbcbc"/><path d="m445.427 0c-31.806 40.173-62.804 79.873-91.317 119.883-48.77 68.468-88.76 137.255-95.145 192.389-3.039 26.463 2.181 50.548 14.348 68.725 13.391 19.984 34.681 34.392 60.461 44.979 57.09 23.44 127.961 27.364 194.403 32.944 27.469 2.282 52.239 4.535 72.701 9.26" stroke="#bdbcbc"/><path d="m600.878 583.256c-4.315 5.454-8.83 11.031-13.514 16.744" stroke="#bdbcbc"/><path d="m442.95 0c-33.12 41.312-65.329 82.095-94.856 123.19-49.349 68.715-89.692 137.908-95.556 192.873-2.8 26.448 2.918 50.379 15.627 68.306 14.037 19.789 36.106 33.807 62.682 44.036 58.907 22.599 131.434 25.579 199.303 30.267 26.554 1.843 50.591 3.656 70.728 7.64" stroke="#bdbcbc"/><path d="m600.878 584.289c-4.122 5.123-8.412 10.357-12.846 15.711" stroke="#bdbcbc"/><path d="m440.865 0c-34.288 42.313-67.571 84.046-97.994 126.095-49.852 68.927-90.512 138.47-95.923 193.291-2.586 26.43 3.562 50.225 16.74 67.937 14.612 19.6 37.324 33.333 64.612 43.215 60.479 21.881 134.465 24.004 203.573 27.921 25.786 1.446 49.189 2.919 69.005 6.341" stroke="#bdbcbc"/><path d="m600.878 585.116c-3.96 4.859-8.066 9.818-12.298 14.884" stroke="#bdbcbc"/><path d="m439.146 0c-35.297 43.174-69.508 85.713-100.706 128.581-50.277 69.107-91.213 138.956-96.236 193.644-2.401 26.414 4.109 50.091 17.682 67.623 15.103 19.437 38.37 32.909 66.254 42.508 61.825 21.256 137.041 22.658 207.198 25.928 25.129 1.181 48.004 2.366 67.54 5.328" stroke="#bdbcbc"/><path d="m600.878 585.765c-3.829 4.651-7.786 9.394-11.857 14.235" stroke="#bdbcbc"/><path d="m437.764 0c-36.137 43.882-71.118 87.09-102.953 130.629-50.628 69.257-91.775 139.347-96.499 193.933-2.256 26.405 4.551 49.996 18.462 67.367 15.49 19.317 39.228 32.553 67.599 41.929 62.92 20.751 139.157 21.543 210.17 24.285 24.606.938 47.042 1.925 66.335 4.546" stroke="#bdbcbc"/><path d="m600.878 586.246c-3.728 4.495-7.574 9.078-11.524 13.754" stroke="#bdbcbc"/><path d="m436.713 0c-36.8 44.437-72.389 88.173-104.732 132.234-50.895 69.373-92.236 139.662-96.7 194.158-2.135 26.394 4.892 49.919 19.063 67.164 15.802 19.218 39.892 32.3 68.651 41.48 63.785 20.34 140.799 20.705 212.486 22.997 24.195.793 46.298 1.613 65.397 3.973" stroke="#bdbcbc"/><path d="m600.878 586.586c-3.656 4.387-7.423 8.857-11.288 13.414" stroke="#bdbcbc"/><path d="m435.965 0c-37.276 44.837-73.303 88.948-106.006 133.387-51.093 69.454-92.568 139.888-96.846 194.319-2.065 26.395 5.156 49.84 19.496 67.018 16.029 19.14 40.366 32.116 69.403 41.155 64.384 20.077 141.983 20.063 214.144 22.079 23.912.651 45.77 1.378 64.722 3.572" stroke="#bdbcbc"/><path d="m600.878 586.789c-3.613 4.322-7.333 8.724-11.147 13.211" stroke="#bdbcbc"/><path d="m435.521 0c-37.565 45.078-73.857 89.414-106.776 134.082-51.207 69.505-92.745 140.015-96.936 194.413-2.004 26.385 5.295 49.817 19.754 66.933 16.16 19.1 40.662 31.98 69.859 40.955 64.767 19.883 142.687 19.702 215.139 21.531 23.734.6 45.447 1.263 64.317 3.349" stroke="#bdbcbc"/><g clip-path="url(#c)" opacity=".199997" stroke="#231f20" stroke-width=".872"><path d="m0 505.852c25.938-2.398 51.503-5.439 76.461-9.424 97.414-15.597 183.873-45.401 239.26-93.142 54.564-47.14 80.33-112.106 92.077-178.788 11.668-66.272 10.604-130.852 30.526-184.366 5.406-14.489 13.567-27.986 24.185-40.132"/><path d="m0 529.002c34.669-3.596 68.676-8.31 101.465-14.878 93.789-18.823 175.244-53.839 223.502-105.814 48.599-52.415 66.395-121.461 72.762-191.379 6.212-68.866 1.75-134.57 21.832-187.622 3.96-10.43 9.619-20.238 16.799-29.309"/><path d="m0 552.731c43.771-4.812 86.461-11.343 126.98-21.104 90.477-21.844 166.831-62.071 208.105-118.117 42.442-57.718 52.468-130.692 53.315-203.889.856-71.343-7.103-138.176 13.091-190.747 2.54-6.593 5.873-12.893 9.936-18.874"/><path d="m0 576.518c53.219-5.906 104.758-14.242 152.727-27.726 87.484-24.653 158.662-70.022 193.148-129.989 36.147-62.976 38.525-139.751 33.86-216.242-4.508-73.704-15.92-141.661 4.386-193.728 1.181-3.017 2.552-5.962 4.105-8.833"/><path d="m2.034 599.62c62.265-6.733 122.036-16.676 176.411-34.112 84.803-27.259 150.718-77.65 178.692-141.39 29.774-68.147 24.734-148.607 14.554-228.378-9.666-75.552-24.477-144.281-4.545-195.74"/><path d="m143.295 599.62c20.924-5.037 41.178-10.942 60.62-17.925 82.419-29.691 143.113-84.914 164.787-152.312 23.431-73.159 11.203-157.224-4.49-240.215-13.821-73.08-30.807-139.168-16.155-189.168"/><path d="m222.866 599.62c2.037-.774 4.064-1.561 6.081-2.361 80.314-31.938 135.818-91.78 151.458-162.718 17.11-78.005-1.992-165.564-23.157-251.704-17.33-70.584-36.301-134.174-26.538-182.837"/><path d="m278.646 599.62c63.956-36.001 104.671-94.046 113.47-160.074 10.924-82.648-14.881-173.6-41.356-262.801-20.226-68.101-40.981-129.326-35.673-176.745"/><path d="m321.178 599.62c49.949-38.363 79.032-93.911 82.521-155.263 4.891-87.073-27.275-181.315-58.985-273.461-14.975-43.425-29.103-83.878-37.158-120.981-3.848-17.793-6.191-34.595-5.993-49.915"/><path d="m355.733 599.62c39.303-39.549 59.873-92.919 59.316-150.674-.937-91.281-39.21-188.687-75.964-283.641-17.195-44.442-33.216-85.601-42.636-123.19-3.705-14.85-6.293-28.99-7.136-42.115"/><path d="m384.738 599.62c30.952-40.062 45.052-91.486 41.325-146.338-6.56-95.257-50.567-195.691-92.216-293.312-19.317-45.392-37.195-87.204-47.853-125.247-3.397-12.119-6.005-23.751-7.474-34.723"/><path d="m409.591 599.62c24.275-40.162 33.329-89.84 27.071-142.267-11.903-99-61.41-202.311-107.683-302.448-21.382-46.271-40.887-88.706-52.788-127.159-2.964-9.591-5.412-18.87-7.161-27.746"/><path d="m431.136 599.62c18.874-40.007 23.933-88.109 15.632-138.481-16.949-102.497-71.634-208.526-122.296-311.012-23.304-47.092-44.366-90.097-57.42-128.929-2.436-7.261-4.567-14.343-6.308-21.198"/><path d="m449.939 599.62c14.456-39.699 16.308-86.388 6.371-134.99-21.685-105.748-81.198-214.324-136.002-318.999-25.056-47.856-47.603-91.371-61.743-130.544-1.848-5.128-3.538-10.161-5.039-15.087"/><path d="m466.419 599.62c10.84-39.304 10.108-84.727-1.174-131.796-26.114-108.744-90.111-219.699-148.763-326.384-26.691-48.553-50.632-92.531-65.74-132.015-1.219-3.179-2.374-6.321-3.459-9.425"/><path d="m483.531 599.62c7.263-38.668 2.507-82.565-10.006-128.898-30.21-111.493-98.295-224.643-160.543-333.159-28.2-49.182-53.327-93.593-69.406-133.343-.57-1.414-1.127-2.822-1.671-4.22"/><path d="m496.033 599.62c4.736-38.249-1.517-81.146-14.928-126.296-33.963-113.991-105.811-229.126-171.288-339.313-29.437-49.536-55.621-94.147-72.515-134.011"/><path d="m506.895 599.62c2.698-37.83-4.774-79.857-18.938-123.995-37.294-116.228-112.584-233.149-180.979-344.828-29.606-48.266-55.927-91.802-73.586-130.797"/><path d="m516.249 599.62c1.032-37.432-7.478-78.704-22.196-121.981-40.316-118.202-118.555-236.729-189.585-349.708-29.627-47.152-56.071-89.718-74.364-127.931"/><path d="m524.18 599.62c-.304-37.072-9.59-77.707-24.802-120.251-42.913-119.921-123.777-239.836-197.092-353.946-29.686-46.153-56.175-87.885-74.923-125.423"/><path d="m530.778 599.62c-1.375-36.756-11.292-76.859-26.873-118.795-45.147-121.379-128.233-242.466-203.471-357.537-29.618-45.332-56.163-86.339-75.297-123.288"/><path d="m536.11 599.62c-2.202-36.489-12.628-76.164-28.488-117.618-46.958-122.572-131.896-244.619-208.709-360.476-29.611-44.63-56.13-85.056-75.54-121.526"/><path d="m540.218 599.62c-2.815-36.283-13.599-75.631-29.689-116.708-48.402-123.503-134.712-246.316-212.798-362.763-29.538-44.102-56.072-84.06-75.693-120.149"/><path d="m543.124 599.62c-3.238-36.135-14.265-75.249-30.516-116.06-49.383-124.171-136.783-247.504-215.723-364.399-29.547-43.7-56.031-83.341-75.781-119.161"/><path d="m544.862 599.62c-3.497-36.041-14.688-75.014-31.008-115.672-50.039-124.566-137.995-248.23-217.477-365.381-29.489-43.476-55.967-82.917-75.813-118.567"/></g></g></g></svg>